<svg width="36" height="36" viewBox="0 0 36 36" fill="none" xmlns="http://www.w3.org/2000/svg">
<path d="M0 15.4286C0 14.0084 1.15127 12.8571 2.57143 12.8571H33.4286C34.8487 12.8571 36 14.0084 36 15.4286V33.4286C36 34.8487 34.8487 36 33.4286 36H2.57143C1.15127 36 0 34.8487 0 33.4286V15.4286Z" fill="#128079"/>
<path d="M0 2.57143C0 1.15127 1.15127 0 2.57143 0H33.4286C34.8487 0 36 1.15127 36 2.57143V5.14286C36 6.56302 34.8487 7.71429 33.4286 7.71429H2.57143C1.15127 7.71429 0 6.56302 0 5.14286V2.57143Z" fill="#128079"/>
</svg>
