<svg width="36" height="37" viewBox="0 0 36 37" fill="none" xmlns="http://www.w3.org/2000/svg">
<path fill-rule="evenodd" clip-rule="evenodd" d="M18 21.1428C12.3429 21.1428 7.71429 16.3857 7.71429 10.5714C7.71429 4.75713 12.3429 0 18 0C23.6571 0 28.2857 4.75713 28.2857 10.5714C28.2857 16.3857 23.6571 21.1428 18 21.1428ZM7.71429 22.1997C10.2857 24.8426 13.8857 26.4283 18 26.4283C22.1143 26.4283 25.7143 24.8426 28.2857 22.1997C32.9143 23.7854 36 27.2211 36 31.714V34.9997C36 36.1042 35.1046 36.9997 34 36.9997H2C0.895431 36.9997 0 36.1042 0 34.9997V31.714C0 27.2211 3.08571 23.7854 7.71429 22.1997Z" fill="#91979A"/>
</svg>
